<?xml version="1.0" encoding="iso-8859-1"?>
<!-- Uploaded to: SVG Repo, www.svgrepo.com, Generator: SVG Repo Mixer Tools -->
<svg version="1.1" id="Layer_1" xmlns="http://www.w3.org/2000/svg" xmlns:xlink="http://www.w3.org/1999/xlink" 
	 viewBox="0 0 512.001 512.001" xml:space="preserve">
<path style="fill:#00B4D7;" d="M255.99,13.673c0,0,325.216,325.216,179.776,444.937c-32.792,27.134-89.759,43.723-179.776,43.723
	S109.135,485.744,76.214,458.61C-69.226,338.888,255.99,13.673,255.99,13.673z"/>
<path style="fill:#00A8D4;" d="M320.986,85.619c-36.391-43.283-64.995-71.947-64.995-71.947S-69.226,338.888,76.214,458.61
	c32.921,27.133,89.759,43.723,179.775,43.723c23.981,0,45.548-1.212,65.006-3.452c-53.549-6.169-90.639-20.365-114.789-40.271
	C103.85,374.355,234.537,188.446,320.986,85.619z"/>
<path d="M255.986,27.535c29.698,30.964,147.84,158.576,191.355,272.515l18.063-6.899c-21.516-56.338-62.17-121.669-120.834-194.177
	c-43.537-53.812-81.369-91.762-81.745-92.139L255.99,0l-6.836,6.836c-0.597,0.597-60.339,60.575-116.697,137.43l15.593,11.434
	C192.406,95.212,238.873,45.358,255.986,27.535z"/>
<path d="M470.932,308.729l-18.379,6.007c9.603,29.381,12.928,55.448,9.882,77.473c-3.353,24.241-14.087,43.52-32.834,58.953
	c-33.281,27.539-91.694,41.503-173.612,41.503c-81.788,0-140.205-13.967-173.631-41.518C65.2,437.022,54.796,419.708,50.55,398.214
	c-3.886-19.669-2.36-42.832,4.536-68.843c11.719-44.203,38.694-96.636,80.178-155.84l-15.834-11.095
	c-42.793,61.073-70.73,115.572-83.033,161.981c-16.453,62.062-5.123,109.722,33.671,141.655
	c36.976,30.477,99.53,45.929,185.924,45.929c86.538,0,149.097-15.457,185.919-45.926
	C483.974,431.447,493.739,378.509,470.932,308.729z"/>
<g>
	<path style="fill:#FFFFFF;" d="M203.947,135.636c-5.712,6.057-139.686,149.471-123.35,246.889
		c4.701,28.038,21.101,49.597,48.742,64.075l8.972-17.127c-22.302-11.682-34.942-28.08-38.643-50.134
		c-6.013-35.825,12.268-86.762,52.866-147.303c31.366-46.774,65.145-82.778,65.483-83.136L203.947,135.636z"/>
	<path style="fill:#FFFFFF;" d="M147.752,452.507c2.224,1.482,22.167,14.484,37.512,14.484v-19.335
		c-6.807,0-19.766-6.573-26.794-11.24l-5.356,8.049L147.752,452.507z"/>
</g>
<rect x="313.853" y="370.506" width="32.148" height="19.335"/>
<rect x="346.002" y="344.777" width="32.148" height="19.335"/>
<rect x="281.705" y="344.777" width="32.148" height="19.335"/>
</svg>